# xmcd CD database file
#
# Track frame offsets:
#	150
#	10736
#	41616
#	42914
#	57197
#	61173
#	69960
#	80493
#	103288
#	108147
#	116179
#	143914
#	157177
#	195660
#	206639
#
# Disc length: 2979 seconds
#
# Revision: 0
# Processed by: cddbd v1.5.1PL0 Copyright (c) Steve Scherf et al.
# Submitted via: CDex 1.51
#
DISCID=d10ba10f
DTITLE=Michael Stark - In Mind
DYEAR=2001
DGENRE=Jazz
TTITLE0=Tunneling to Light
TTITLE1=Circle
TTITLE2=Illume
TTITLE3=Obstacle Course
TTITLE4=Go Inside
TTITLE5=Dark Warm, Open
TTITLE6=Antidote
TTITLE7=Alien Pirate Ship
TTITLE8=Somewhere Else
TTITLE9=Confession
TTITLE10=Starfall
TTITLE11=Out to Mar
TTITLE12=Weight
TTITLE13=Eaf/Koln part IIc
TTITLE14=Blue Black Space
EXTD=YEAR: 2001
EXTT0=
EXTT1=
EXTT2=
EXTT3=
EXTT4=
EXTT5=
EXTT6=
EXTT7=
EXTT8=
EXTT9=
EXTT10=
EXTT11=
EXTT12=
EXTT13=
EXTT14=
PLAYORDER=
